# xmcd CD database file
#
# Track frame offsets:
#	150
#	30512
#	63512
#	85637
#	117737
#	153062
#	175862
#
# Disc length: 2711 seconds
#
# Revision: 0
# Processed by: cddbd v1.5.2PL0 Copyright (c) Steve Scherf et al.
# Submitted via: CDex 1.70beta2
#
DISCID=4d0a9507
DTITLE=Paul Grabowsky - The Zurich Session
DYEAR=1991
DGENRE=Jazz
TTITLE0=Speak Low
TTITLE1=Gallery Cool
TTITLE2=Caravan Of Dreams
TTITLE3=No Inadequate Words
TTITLE4=For Frank (St. Peter)
TTITLE5=Claim Back
TTITLE6=Choral
EXTD=YEAR: 1991
EXTT0=
EXTT1=
EXTT2=
EXTT3=
EXTT4=
EXTT5=
EXTT6=
PLAYORDER=
